<mxfile host="app.diagrams.net"><diagram id="d857a8dbfb" name="Level 1 DFD – Ticket Lifecycle"><mxGraphModel dx="1000" dy="1000" grid="1" gridSize="10" guides="1" tooltips="1" connect="1" arrows="1" fold="1" page="1" pageScale="1" pageWidth="827" pageHeight="1169" math="0" shadow="0"><root><mxCell id="0" /><mxCell id="1" parent="0" /><mxCell id="9dfe46f790" value="User" style="shape=ellipse;" vertex="1" parent="1"><mxGeometry x="20" y="100" width="140" height="60" as_="geometry" /></mxCell><mxCell id="b0db89e2f4" value="Manager" style="shape=ellipse;" vertex="1" parent="1"><mxGeometry x="20" y="250" width="140" height="60" as_="geometry" /></mxCell><mxCell id="04457240aa" value="Admin" style="shape=ellipse;" vertex="1" parent="1"><mxGeometry x="20" y="400" width="140" height="60" as_="geometry" /></mxCell><mxCell id="374ac22c65" value="Create Ticket" style="rounded=1;whiteSpace=wrap;html=1;" vertex="1" parent="1"><mxGeometry x="250" y="100" width="140" height="60" as_="geometry" /></mxCell><mxCell id="ca48fa535c" value="Assign Ticket" style="rounded=1;whiteSpace=wrap;html=1;" vertex="1" parent="1"><mxGeometry x="450" y="100" width="140" height="60" as_="geometry" /></mxCell><mxCell id="2b80aa11f1" value="Resolve Ticket" style="rounded=1;whiteSpace=wrap;html=1;" vertex="1" parent="1"><mxGeometry x="650" y="100" width="140" height="60" as_="geometry" /></mxCell><mxCell id="3e98f6f9ff" value="Close Ticket / Submit Feedback" style="rounded=1;whiteSpace=wrap;html=1;" vertex="1" parent="1"><mxGeometry x="850" y="100" width="140" height="60" as_="geometry" /></mxCell><mxCell id="f18f17e3ce" value="Generate Reports" style="rounded=1;whiteSpace=wrap;html=1;" vertex="1" parent="1"><mxGeometry x="650" y="300" width="140" height="60" as_="geometry" /></mxCell><mxCell id="d579428bbe" value="Ticket DB" style="rounded=1;whiteSpace=wrap;html=1;" vertex="1" parent="1"><mxGeometry x="450" y="200" width="140" height="60" as_="geometry" /></mxCell><mxCell id="d5a3f282ae" value="Feedback DB" style="shape=datastore;" vertex="1" parent="1"><mxGeometry x="850" y="200" width="140" height="60" as_="geometry" /></mxCell><mxCell id="26465ba0e3" style="endArrow=block;" edge="1" parent="1" source="9dfe46f790" target="374ac22c65"><mxGeometry relative="1" as_="geometry" /></mxCell><mxCell id="5738ce9208" style="endArrow=block;" edge="1" parent="1" source="b0db89e2f4" target="ca48fa535c"><mxGeometry relative="1" as_="geometry" /></mxCell><mxCell id="24cd75793e" style="endArrow=block;" edge="1" parent="1" source="04457240aa" target="ca48fa535c"><mxGeometry relative="1" as_="geometry" /></mxCell><mxCell id="61c1dc9067" style="endArrow=block;" edge="1" parent="1" source="374ac22c65" target="d579428bbe"><mxGeometry relative="1" as_="geometry" /></mxCell><mxCell id="e94c652223" style="endArrow=block;" edge="1" parent="1" source="ca48fa535c" target="d579428bbe"><mxGeometry relative="1" as_="geometry" /></mxCell><mxCell id="9fc27310b8" style="endArrow=block;" edge="1" parent="1" source="ca48fa535c" target="9dfe46f790"><mxGeometry relative="1" as_="geometry" /></mxCell><mxCell id="03e4280697" style="endArrow=block;" edge="1" parent="1" source="9dfe46f790" target="2b80aa11f1"><mxGeometry relative="1" as_="geometry" /></mxCell><mxCell id="1b4c08bb7f" style="endArrow=block;" edge="1" parent="1" source="b0db89e2f4" target="2b80aa11f1"><mxGeometry relative="1" as_="geometry" /></mxCell><mxCell id="c9e113775e" style="endArrow=block;" edge="1" parent="1" source="04457240aa" target="2b80aa11f1"><mxGeometry relative="1" as_="geometry" /></mxCell><mxCell id="e825ee75bd" style="endArrow=block;" edge="1" parent="1" source="2b80aa11f1" target="d579428bbe"><mxGeometry relative="1" as_="geometry" /></mxCell><mxCell id="e03ee15133" style="endArrow=block;" edge="1" parent="1" source="b0db89e2f4" target="3e98f6f9ff"><mxGeometry relative="1" as_="geometry" /></mxCell><mxCell id="2ca4404333" style="endArrow=block;" edge="1" parent="1" source="04457240aa" target="3e98f6f9ff"><mxGeometry relative="1" as_="geometry" /></mxCell><mxCell id="a4581ededa" style="endArrow=block;" edge="1" parent="1" source="3e98f6f9ff" target="d5a3f282ae"><mxGeometry relative="1" as_="geometry" /></mxCell><mxCell id="81cddec5ef" style="endArrow=block;" edge="1" parent="1" source="04457240aa" target="f18f17e3ce"><mxGeometry relative="1" as_="geometry" /></mxCell><mxCell id="bb2ce0da13" style="endArrow=block;" edge="1" parent="1" source="f18f17e3ce" target="d579428bbe"><mxGeometry relative="1" as_="geometry" /></mxCell><mxCell id="aeea0f890a" style="endArrow=block;" edge="1" parent="1" source="f18f17e3ce" target="d5a3f282ae"><mxGeometry relative="1" as_="geometry" /></mxCell></root></mxGraphModel></diagram></mxfile>